<?xml version="1.0" encoding="UTF-8"?>
<svg version="1.1" xmlns="http://www.w3.org/2000/svg" width="1366" height="1366">
<path d="M0 0 C0.66708984 -0.02900391 1.33417969 -0.05800781 2.02148438 -0.08789062 C15.84833393 -0.25325313 29.82414082 6.15323484 42.625 10.8125 C44.43838821 11.46700474 46.25203602 12.1207906 48.06591797 12.77392578 C52.00005059 14.19097793 55.93316912 15.61079845 59.86572266 17.03222656 C69.98326786 20.68562525 80.11540522 24.29830538 90.24630737 27.91445923 C93.83051256 29.19393003 97.41442181 30.4742271 100.99829102 31.75463867 C116.34441771 37.23584992 131.69974549 42.69058296 147.0625 48.125 C166.34136597 54.94542362 185.61386805 61.78305888 204.86219788 68.68927002 C209.70687453 70.4267972 214.55512043 72.15381258 219.40672302 73.87190247 C222.43894587 74.94751238 225.46844888 76.03063194 228.49734497 77.11557007 C229.88444479 77.61067153 231.2726445 78.10270548 232.66207886 78.59121704 C250.317745 84.80335016 262.29067672 91.58582474 270.71362305 108.64013672 C273.58728396 114.73875819 274.35298857 119.67746884 274.4375 126.375 C274.46328125 127.58285156 274.4890625 128.79070312 274.515625 130.03515625 C273.92007135 142.75654776 268.04377324 154.60315028 263.25 166.1875 C262.47500292 168.07775276 261.70092504 169.96838263 260.92773438 171.859375 C259.38839214 175.62323164 257.84593077 179.38578436 256.30126953 183.14746094 C253.5525132 189.85172223 250.86551975 196.57970545 248.1875 203.3125 C243.6607134 214.66040831 239.08821867 225.98930974 234.5 237.3125 C227.27728646 255.14003621 220.07030529 272.97388694 212.875 290.8125 C212.60795761 291.47448143 212.34091522 292.13646286 212.06578064 292.81850433 C205.00716909 310.31677937 197.97569021 327.8255136 190.98220825 345.34994507 C181.51964182 369.06038005 171.893933 392.70096959 162.1875 416.3125 C159.49912097 422.85380571 156.81146128 429.39540644 154.125 435.9375 C153.79779968 436.73416077 153.47059937 437.53082153 153.13348389 438.35162354 C147.7186671 451.53913429 142.35730898 464.74778943 137.01574707 477.96511841 C127.57986095 501.31226665 118.0705577 524.62945277 108.56036377 547.94641113 C107.21179003 551.25294392 105.86343474 554.55956571 104.51513672 557.86621094 C99.91802883 569.13978708 95.31740478 580.41191391 90.71116638 591.6817627 C88.37468399 597.40017108 86.04471224 603.12117589 83.72036743 608.8445282 C82.26280825 612.43165094 80.80153645 616.01725396 79.33953857 619.60256958 C78.66861281 621.25037874 77.99931087 622.89885025 77.33184814 624.54806519 C63.23726868 659.36646583 63.23726868 659.36646583 46.1875 667.3125 C29.56601604 673.99265336 14.61248681 670.14342616 -1.39260864 663.47665405 C-3.54133602 662.58175449 -5.69550811 661.70117975 -7.85131836 660.82348633 C-10.31984408 659.81825382 -12.78792891 658.81203137 -15.25444031 657.80186462 C-22.80828998 654.709806 -30.38381991 651.67315957 -37.96484375 648.6484375 C-38.58568155 648.40069517 -39.20651936 648.15295284 -39.84617043 647.89770317 C-42.40119849 646.8781949 -44.95628021 645.85882128 -47.51145267 644.83967495 C-81.71630963 631.19570251 -115.87920622 617.44774318 -149.9296875 603.42236328 C-157.82482846 600.17151196 -165.72602471 596.93746412 -173.6449585 593.74491882 C-177.66227452 592.12485958 -181.67714481 590.49878418 -185.69195557 588.87252808 C-187.62234174 588.09260065 -189.55391474 587.31560325 -191.48675537 586.54177856 C-225.31228007 572.99608196 -225.31228007 572.99608196 -232.91796875 555.7421875 C-239.45595254 537.98399571 -233.51202756 521.44905953 -226.35998535 504.88775635 C-224.68390711 501.00363298 -223.04421582 497.10406546 -221.3984375 493.20703125 C-221.03790283 492.35566589 -220.67736816 491.50430054 -220.3059082 490.62713623 C-215.92462584 480.25824365 -211.69994568 469.82569044 -207.46636963 459.39584351 C-194.31854819 427.00702196 -181.01066317 394.68423616 -167.52734375 362.43359375 C-166.26220539 359.40358401 -165.01800637 356.36686589 -163.8125 353.3125 C-162.15952032 356.31296535 -161.30991227 359.06661398 -160.62890625 362.41796875 C-160.42330078 363.40216797 -160.21769531 364.38636719 -160.00585938 365.40039062 C-159.79767578 366.42326172 -159.58949219 367.44613281 -159.375 368.5 C-158.0624101 374.94701097 -156.71924174 381.14388396 -154.28100586 387.27075195 C-153.10609044 392.39103214 -155.8880186 397.31573443 -157.8046875 401.98046875 C-158.10622742 402.72378448 -158.40776733 403.46710022 -158.71844482 404.23294067 C-159.70356483 406.65718129 -160.69532136 409.07864067 -161.6875 411.5 C-162.37567365 413.18831963 -163.06366042 414.87671546 -163.75146484 416.56518555 C-167.99362541 426.9603679 -172.31898944 437.31695138 -176.72558594 447.64355469 C-180.55571767 456.64164279 -184.2587033 465.68926936 -187.9375 474.75 C-188.22602844 475.45984039 -188.51455688 476.16968079 -188.81182861 476.90103149 C-195.30165733 491.96943099 -195.30165733 491.96943099 -193.90625 507.9921875 C-188.94690441 517.43401853 -181.40143015 520.68662938 -171.875 524.5 C-170.62086855 525.01030749 -169.3668864 525.52098203 -168.11303711 526.03198242 C-154.06188953 531.72363128 -139.87542764 537.07828451 -125.70898438 542.47436523 C-113.5687906 547.09934127 -101.45206583 551.77506789 -89.375 556.5625 C-88.63502777 556.85567108 -87.89505554 557.14884216 -87.13265991 557.45089722 C-84.00563165 558.68987514 -80.87870944 559.92911999 -77.7519989 561.16889954 C-65.90597065 565.86408815 -54.0469172 570.52625614 -42.1875 575.1875 C-40.99968933 575.65437225 -39.81187866 576.12124451 -38.58807373 576.6022644 C-21.90960838 583.15538026 -5.21592498 589.66802218 11.5 596.125 C12.44377502 596.48970398 13.38755005 596.85440796 14.35992432 597.23016357 C16.98564371 598.24432603 19.61182619 599.25727573 22.23828125 600.26953125 C23.00734299 600.56633286 23.77640472 600.86313446 24.56877136 601.16893005 C33.31286416 604.53306526 42.19396445 606.42336122 51.1875 602.5625 C62.54192964 596.57448875 65.87174611 586.11466919 70.5 574.6875 C71.01825549 573.42026919 71.53707262 572.15326796 72.05639648 570.88647461 C73.1792243 568.14507656 74.29882296 565.40239066 75.41601562 562.65869141 C77.22339718 558.22137657 79.04031936 553.78800866 80.859375 549.35546875 C81.17386093 548.58913116 81.48834686 547.82279358 81.81236267 547.03323364 C82.46113186 545.45240084 83.10993088 543.87158028 83.75875854 542.29077148 C84.7603904 539.84967738 85.76126502 537.40827399 86.76196289 534.96679688 C92.93726848 519.90335377 99.14316448 504.85257022 105.36987305 489.81030273 C106.16068864 487.89959508 106.95146078 485.98886944 107.7421875 484.078125 C108.12488297 483.15338882 108.50757843 482.22865265 108.90187073 481.27589417 C111.24732591 475.60279857 113.57241544 469.9218252 115.8828125 464.234375 C116.69337059 462.24679747 117.50454806 460.25947424 118.31604004 458.27227783 C119.03207662 456.51227982 119.74033466 454.74912324 120.44824219 452.98583984 C123.89927609 444.54317841 127.83353519 437.61030798 133.875 430.75 C155.67577768 405.15280241 168.64648193 373.35680267 174 340.375 C174.11174561 339.69211914 174.22349121 339.00923828 174.33862305 338.30566406 C174.8566654 334.77818013 175.18652623 331.35981814 175.26000977 327.7890625 C175.55554759 316.83463992 178.29129632 308.24031503 182.5 298.1875 C183.07051717 296.78082114 183.63887756 295.37326562 184.20507812 293.96484375 C185.44430359 290.89260179 186.697051 287.82628082 187.95751953 284.76269531 C190.59825664 278.32893223 193.18093299 271.87205417 195.76171875 265.4140625 C196.13886489 264.47058016 196.13886489 264.47058016 196.52363014 263.50803757 C203.27266064 246.62056906 209.97857654 229.71592982 216.6875 212.8125 C218.85127859 207.360764 221.01534824 201.90914383 223.18002319 196.45776367 C224.08626433 194.17510507 224.99199366 191.89224383 225.89770508 189.609375 C228.81289942 182.26507793 231.7407879 174.92622702 234.6953125 167.59765625 C235.25340993 166.21115409 235.8114754 164.82463907 236.36950684 163.43811035 C237.40345826 160.86937662 238.44187795 158.30251562 239.48303223 155.73669434 C243.89766575 144.77453183 247.84837109 134.68954821 243.5 123 C238.52337329 112.17455428 230.42313142 108.6190586 219.66699219 104.56982422 C214.31928829 102.61319725 208.94092679 100.74507931 203.5625 98.875 C201.55242662 98.16925158 199.54266649 97.4626104 197.53320312 96.75512695 C193.41218395 95.30476349 189.29002078 93.85772668 185.16699219 92.41308594 C177.17085547 89.60807107 169.19075755 86.75856376 161.21240234 83.90344238 C158.6536106 82.98787394 156.09443138 82.07339597 153.53515625 81.15917969 C138.43358742 75.76367864 123.33900804 70.34868782 108.24401855 64.93481445 C90.14619487 58.44435004 72.04357523 51.96740113 53.9375 45.5 C52.7608075 45.07957428 51.58411499 44.65914856 50.37176514 44.22598267 C49.22605042 43.81665497 48.08033569 43.40732727 46.89990234 42.9855957 C45.7844101 42.58703873 44.66891785 42.18848175 43.5196228 41.77784729 C40.33300248 40.6406651 37.14504893 39.50728099 33.95703125 38.37402344 C30.32153836 37.08011328 26.69417914 35.76738274 23.07421875 34.43066406 C22.30039856 34.14822342 21.52657837 33.86578278 20.72930908 33.57478333 C19.34302156 33.06824774 17.95917951 32.55492803 16.57879639 32.03251648 C8.55032275 29.11992114 0.11273393 28.77265901 -7.875 32.0625 C-18.24710602 37.58406476 -22.02981232 46.15312281 -26.1484375 56.73046875 C-26.54440628 57.72814774 -26.94037506 58.72582672 -27.3483429 59.7537384 C-28.63508788 62.99976201 -29.91115412 66.24987522 -31.1875 69.5 C-32.08607123 71.77054827 -32.98557622 74.04072721 -33.88598633 76.31054688 C-35.24613626 79.73955089 -36.60577584 83.16874518 -37.96253967 86.59909058 C-40.57229426 93.19692283 -43.19906721 99.78724595 -45.86328125 106.36328125 C-46.17081329 107.12240814 -46.47834534 107.88153503 -46.79519653 108.66366577 C-48.28661866 112.33905731 -49.78587043 116.011098 -51.29394531 119.6796875 C-54.28626444 126.97555077 -57.2014045 134.28845865 -59.96827698 141.67330933 C-61.41449472 145.52113299 -62.89072103 149.35713829 -64.36929321 153.19262695 C-65.06950627 155.03286919 -65.75574265 156.87850411 -66.42636108 158.72973633 C-70.99653685 171.32932729 -75.3292012 178.15298384 -86.8125 185.3125 C-88.5590536 186.64416635 -90.29174248 187.99455044 -92 189.375 C-92.79148437 190.01179687 -93.58296875 190.64859375 -94.3984375 191.3046875 C-100.46449029 196.34991587 -106.32467142 201.6417438 -111.8125 207.3125 C-109.32729965 199.50749975 -106.34313336 191.93700404 -103.2890625 184.33984375 C-102.74136335 182.97213251 -102.19387263 181.60433779 -101.64657593 180.23646545 C-100.49659044 177.36379655 -99.34492774 174.49180827 -98.19189453 171.62036133 C-96.7567559 168.04634669 -95.3244221 164.47121785 -93.89323711 160.89561844 C-87.40060473 144.67588164 -80.86545089 128.47380767 -74.27468872 112.29368591 C-67.93234356 96.71695357 -61.69720027 81.09694792 -55.49008179 65.46588135 C-52.74117319 58.54381274 -49.97280871 51.63007372 -47.18359375 44.72412109 C-45.89847475 41.5264265 -44.63604644 38.32052189 -43.375 35.11328125 C-37.86857007 21.373674 -31.48637471 9.90167703 -17.25 3.625 C-15.85587891 3.00044922 -15.85587891 3.00044922 -14.43359375 2.36328125 C-9.59153809 0.42212928 -5.19934752 0.0708358 0 0 Z M-123.5625 574.875 C-126.10856866 577.19643182 -126.10856866 577.19643182 -126.4375 580.75 C-125.68791001 585.02266292 -124.2250667 586.84543907 -120.8125 589.3125 C-117.28080045 591.11127607 -113.62442061 592.51525791 -109.921875 593.921875 C-108.8626886 594.33415344 -107.8035022 594.74643188 -106.71221924 595.17120361 C-104.47551571 596.03807694 -102.23624593 596.89835409 -99.99462891 597.75244141 C-96.58159419 599.05521166 -93.17924884 600.38332106 -89.77734375 601.71484375 C-87.59694699 602.55622538 -85.41597509 603.39611841 -83.234375 604.234375 C-82.22469666 604.62913025 -81.21501831 605.0238855 -80.17474365 605.43060303 C-74.31100601 607.64535184 -69.09707591 609.0733374 -62.8125 609.3125 C-59.62474392 608.02985902 -59.62474392 608.02985902 -57.8125 605.3125 C-56.8956978 601.85571553 -56.8956978 601.85571553 -57.8125 598.3125 C-62.20035777 593.93491022 -66.67857447 591.83981611 -72.4375 589.71875 C-73.26145264 589.40474243 -74.08540527 589.09073486 -74.93432617 588.76721191 C-77.55633022 587.77117723 -80.18419433 586.79176752 -82.8125 585.8125 C-84.54597329 585.15600413 -86.27905015 584.49846047 -88.01171875 583.83984375 C-92.17122542 582.26313544 -96.33798806 580.70715875 -100.51025391 579.16455078 C-102.00305606 578.61207151 -103.49497719 578.05720354 -104.98583984 577.49951172 C-106.92569348 576.77431127 -108.86843838 576.05757903 -110.8125 575.34375 C-111.885 574.94736328 -112.9575 574.55097656 -114.0625 574.14257812 C-117.88305225 572.98935745 -120.0596252 572.88473023 -123.5625 574.875 Z " fill="#00ACFF" transform="translate(686.8125,331.6875)"/>
<path d="M0 0 C30.29953878 26.37882661 48.37338481 61.00914587 51.47460938 101.22998047 C53.77353511 144.55652018 36.06286374 186.10903205 8.26757812 218.54492188 C7.53667969 219.39957031 6.80578125 220.25421875 6.05273438 221.13476562 C-19.88019869 250.71380527 -56.7204442 268.13849617 -95.73242188 271.54492188 C-133.67121349 273.69521486 -172.25765256 262.36279052 -200.95629883 236.95629883 C-202.56162526 235.49946097 -204.14999687 234.02656844 -205.73242188 232.54492188 C-206.64636719 231.70058594 -207.5603125 230.85625 -208.50195312 229.98632812 C-228.79109719 210.50750317 -241.68377316 184.03048079 -246.73242188 156.54492188 C-246.95671875 155.37445312 -247.18101562 154.20398438 -247.41210938 152.99804688 C-251.25899134 129.28439092 -248.91108117 104.39495944 -241.73242188 81.54492188 C-241.41748779 80.54066162 -241.41748779 80.54066162 -241.09619141 79.51611328 C-233.07192678 54.3594318 -219.29614289 32.98179234 -201.08251953 13.95800781 C-199.93811212 12.76020852 -198.80823123 11.54855634 -197.68164062 10.33398438 C-146.734471 -43.12236062 -56.16551347 -47.17396565 0 0 Z M-167.73242188 22.54492188 C-168.31862305 23.0130127 -168.90482422 23.48110352 -169.50878906 23.96337891 C-185.69548457 36.1509209 -185.69548457 36.1509209 -195.10742188 52.54492188 C-195.04191799 55.54677688 -195.04191799 55.54677688 -193.20117188 57.09179688 C-189.91554221 59.02574345 -186.52582992 59.89209154 -182.85742188 60.79492188 C-182.05385254 60.99964111 -181.2502832 61.20436035 -180.42236328 61.4152832 C-167.57337005 64.64711477 -154.64780515 67.59249997 -141.73242188 70.54492188 C-140.82121582 70.75536133 -139.91000977 70.96580078 -138.97119141 71.18261719 C-130.07811956 73.20962113 -124.72398132 72.90041404 -116.34570312 69.51757812 C-104.55223826 65.12808223 -90.07083524 66.79097482 -78.79101562 71.86914062 C-66.18748137 78.40240124 -58.92593742 86.78963052 -54.29492188 100.35742188 C-53.98683594 101.39511719 -53.67875 102.4328125 -53.36132812 103.50195312 C-48.90167413 111.83305736 -38.25743377 115.76501782 -30.23242188 120.10742188 C-28.95086515 120.80565753 -27.66953675 121.5043124 -26.38842773 122.20336914 C-23.78063015 123.62530895 -21.17085928 125.04354402 -18.56005859 126.45996094 C-14.92952633 128.43283468 -11.31634782 130.43544202 -7.70507812 132.44335938 C-5.56848774 133.62327935 -3.43177556 134.80297881 -1.29492188 135.98242188 C-0.31394531 136.53164307 0.66703125 137.08086426 1.67773438 137.64672852 C8.09766494 141.27970004 8.09766494 141.27970004 15.26757812 142.54492188 C18.89148072 140.12898681 18.97088575 139.30457131 19.95507812 135.16992188 C23.17433418 118.69891337 23.04260039 99.67870922 18.26757812 83.54492188 C18.07421875 82.85849609 17.88085938 82.17207031 17.68164062 81.46484375 C9.18463354 51.69909363 -9.3861971 26.59280406 -36.54492188 11.35742188 C-49.2557577 4.54889576 -63.36425876 -0.73179376 -77.73242188 -2.45507812 C-78.6425 -2.56464844 -79.55257812 -2.67421875 -80.49023438 -2.78710938 C-112.08139964 -6.08702218 -142.9363358 2.62026652 -167.73242188 22.54492188 Z M-212.24804688 87.43164062 C-215.51645705 91.52743137 -216.37516211 95.30787147 -217.48242188 100.35742188 C-217.68996094 101.22173828 -217.8975 102.08605469 -218.11132812 102.9765625 C-224.93902371 132.15945491 -219.42707725 162.88316476 -203.97851562 188.44726562 C-202.31274021 190.89375249 -200.57029386 193.2252399 -198.73242188 195.54492188 C-197.64767578 196.93130859 -197.64767578 196.93130859 -196.54101562 198.34570312 C-190.18192962 206.2972506 -183.76488775 212.9724111 -175.60742188 219.04492188 C-175.00905518 219.50326416 -174.41068848 219.96160645 -173.79418945 220.43383789 C-171.19106681 222.31139932 -169.29391528 223.51218173 -166.05273438 223.70117188 C-160.84418825 221.10566741 -159.45209488 216.04928527 -157.65429688 210.85351562 C-156.91864102 208.56688141 -156.19538257 206.27623369 -155.48242188 203.98242188 C-155.09836182 202.76401611 -154.71430176 201.54561035 -154.31860352 200.2902832 C-151.45676575 191.14700829 -148.76593341 181.95438217 -146.16992188 172.73242188 C-145.82348633 171.51804443 -145.47705078 170.30366699 -145.12011719 169.05249023 C-142.47139943 159.43428303 -141.66956975 153.54620695 -146.60742188 144.79492188 C-150.53494965 137.39576291 -152.3980467 130.96606826 -152.91601562 122.56835938 C-152.97917969 121.59125 -153.04234375 120.61414063 -153.10742188 119.60742188 C-153.13578125 118.73214844 -153.16414062 117.856875 -153.19335938 116.95507812 C-153.92509991 113.68345557 -155.11948082 112.62757702 -157.73242188 110.54492188 C-159.99182292 109.28492636 -162.21066358 108.1438975 -164.54492188 107.04492188 C-165.97176357 106.35309428 -167.39747572 105.65893398 -168.82226562 104.96289062 C-169.60069824 104.58310059 -170.37913086 104.20331055 -171.18115234 103.81201172 C-176.99974361 100.92220419 -182.73429313 97.86649077 -188.4855957 94.84570312 C-191.23146668 93.40612493 -193.98111326 91.9740766 -196.73242188 90.54492188 C-198.12509277 89.81474854 -198.12509277 89.81474854 -199.54589844 89.06982422 C-200.4350293 88.61172363 -201.32416016 88.15362305 -202.24023438 87.68164062 C-203.03316895 87.27002686 -203.82610352 86.85841309 -204.64306641 86.43432617 C-208.04166962 84.98759662 -209.29071433 85.21364122 -212.24804688 87.43164062 Z M-125.73242188 100.54492188 C-130.84352194 108.66180535 -133.20881467 116.93673001 -131.08398438 126.44726562 C-128.37277601 135.63524953 -124.39429525 141.79956563 -115.91992188 146.48242188 C-107.99764314 150.03544385 -99.91438164 150.56959865 -91.73242188 147.54492188 C-84.64694681 144.26560489 -79.65934142 140.32307014 -75.73242188 133.54492188 C-75.39339844 132.96355469 -75.054375 132.3821875 -74.70507812 131.78320312 C-71.31111205 124.57298026 -71.36959361 115.1119108 -73.61132812 107.59960938 C-77.0188009 100.24486615 -81.91386686 94.58014776 -89.29492188 91.10742188 C-102.92386802 86.30820456 -116.33260963 89.73206596 -125.73242188 100.54492188 Z M-69.92773438 159.13476562 C-76.67647061 163.96889173 -83.413998 167.58814328 -91.21679688 170.45898438 C-101.21858816 174.31873605 -105.07758997 183.60408805 -109.85742188 192.66992188 C-110.99110484 194.79254829 -112.12523028 196.91493843 -113.25976562 199.03710938 C-113.83194824 200.11186523 -114.40413086 201.18662109 -114.99365234 202.29394531 C-117.76742364 207.48006417 -120.59439075 212.63687626 -123.41992188 217.79492188 C-124.40372762 219.59139575 -125.38685647 221.38824057 -126.36914062 223.18554688 C-126.77865967 223.93352539 -127.18817871 224.68150391 -127.61010742 225.45214844 C-127.98047119 226.14276367 -128.35083496 226.83337891 -128.73242188 227.54492188 C-129.10343018 228.23166992 -129.47443848 228.91841797 -129.85668945 229.62597656 C-131.13455 232.42608358 -131.11950772 234.51274945 -130.73242188 237.54492188 C-127.44764017 240.94701721 -124.09731694 241.47682158 -119.50292969 241.70605469 C-116.07200799 241.7437957 -112.64155744 241.77610518 -109.21044922 241.78515625 C-107.03116355 241.79470824 -104.85288637 241.82567598 -102.67382812 241.85742188 C-89.83334812 241.95541436 -77.27550475 240.36725215 -65.16992188 235.85742188 C-64.12324341 235.47505371 -64.12324341 235.47505371 -63.05541992 235.08496094 C-37.27280625 225.32354619 -17.53816211 207.7669679 -1.73242188 185.54492188 C-1.11548462 184.69679932 -1.11548462 184.69679932 -0.48608398 183.83154297 C1.55172237 180.94071187 2.26761128 179.54453733 2.58007812 175.91992188 C1.65348759 172.54544452 1.65348759 172.54544452 -0.48135376 171.44387817 C-6.10961369 169.09082605 -11.74913822 167.21142023 -17.63085938 165.59960938 C-18.54646637 165.34365997 -19.46207336 165.08771057 -20.40542603 164.82400513 C-22.328929 164.28802952 -24.25337519 163.75542837 -26.17871094 163.22607422 C-29.09501606 162.42333668 -32.00758603 161.60802212 -34.91992188 160.79101562 C-36.80252533 160.26812698 -38.6853315 159.74596754 -40.56835938 159.22460938 C-41.8517067 158.86518753 -41.8517067 158.86518753 -43.16098022 158.49850464 C-57.11140144 154.17530003 -57.11140144 154.17530003 -69.92773438 159.13476562 Z " fill="#00AFFF" transform="translate(791.732421875,535.455078125)"/>
<path d="M0 0 C5.17395323 0.53569124 9.23598931 1.75041287 13.953125 3.921875 C14.92745987 4.36639008 14.92745987 4.36639008 15.92147827 4.81988525 C18.03530591 5.78749103 20.14266543 6.76834348 22.25 7.75 C23.72420525 8.42890977 25.19865495 9.10728897 26.67333984 9.78515625 C38.23379237 15.11500901 49.71665188 20.60319977 61.15625 26.1875 C64.73258658 27.92708933 68.31990314 29.60573387 71.96875 31.1875 C72.68595215 31.50203125 73.4031543 31.8165625 74.14208984 32.140625 C75.9447949 32.92190077 77.75708698 33.68096146 79.5703125 34.4375 C82 36 82 36 83.1328125 38.390625 C82.94257424 42.12824735 81.44951987 43.21609484 78.75 45.75 C77.82058594 46.6265625 76.89117188 47.503125 75.93359375 48.40625 C72.39224375 51.5373504 68.74544563 54.50575483 65.05078125 57.453125 C61.39892372 60.5017948 57.95332968 63.73034421 54.5 67 C49.42097125 71.80460712 44.23844162 76.34111553 38.76953125 80.703125 C34.84222778 83.96018345 31.1266696 87.43063414 27.41357422 90.92822266 C19.97840051 97.908986 19.97840051 97.908986 16.3125 98.25 C14 98 14 98 13 97 C12.77254528 95.43996338 12.60529014 93.87104387 12.46484375 92.30078125 C12.33432617 90.85735352 12.33432617 90.85735352 12.20117188 89.38476562 C12.11416016 88.37091797 12.02714844 87.35707031 11.9375 86.3125 C11.84662109 85.31798828 11.75574219 84.32347656 11.66210938 83.29882812 C11.23911252 78.51864563 10.87723069 73.80437244 11 69 C-16.88860759 78.27879857 -41.95363178 89.47527202 -65 108 C-65.60634277 108.48533203 -66.21268555 108.97066406 -66.83740234 109.47070312 C-73.48085707 114.828735 -79.66845372 120.29674521 -85 127 C-85.98226562 128.18722656 -85.98226562 128.18722656 -86.984375 129.3984375 C-90.24012506 133.37632761 -93.2887976 137.38970516 -96.13061523 141.67407227 C-96.66863266 142.48425308 -97.20665009 143.2944339 -97.76097107 144.12916565 C-98.16985062 144.74654099 -98.57873016 145.36391632 -99 146 C-97.93732548 146.00358253 -97.93732548 146.00358253 -96.85318279 146.00723743 C-79.62753331 146.06633298 -62.40203458 146.14184789 -45.17653942 146.23571491 C-36.84646557 146.28071068 -28.51643482 146.32011652 -20.1862793 146.34643555 C-12.92704269 146.36938512 -5.6679421 146.40274883 1.5911867 146.44870156 C5.43606928 146.47267506 9.28081682 146.49137667 13.12577248 146.49761391 C16.74309874 146.50364626 20.36007928 146.52357824 23.97727776 146.55427551 C25.94117085 146.56729363 27.90514459 146.56548075 29.86907959 146.5632782 C31.03435684 146.57581635 32.19963409 146.58835449 33.40022278 146.60127258 C34.92256389 146.60818603 34.92256389 146.60818603 36.47565937 146.61523914 C39 147 39 147 40.78748608 148.21242046 C42.43076838 150.63507125 42.86403521 152.045856 43 155 C42.12244092 157.72297272 41.20161495 160.20774044 40.0625 162.8125 C39.62647461 163.85180664 39.62647461 163.85180664 39.18164062 164.91210938 C38.46608352 166.61302381 37.73460121 168.30722331 37 170 C35.8595586 170.00331015 34.7191172 170.00662029 33.54411697 170.01003075 C5.8199107 170.09095394 -21.90423985 170.18324761 -49.62836838 170.28752708 C-52.29521424 170.29750537 -54.96206015 170.30746747 -57.62890625 170.31738281 C-58.29177349 170.31984881 -58.95464073 170.3223148 -59.63759485 170.32485552 C-70.37577928 170.36459754 -81.11397426 170.39733848 -91.85218939 170.42749982 C-102.86760157 170.45859529 -113.88296766 170.49734487 -124.89832997 170.54279006 C-131.08674626 170.56807755 -137.27513072 170.5898522 -143.4635849 170.60334396 C-149.28459584 170.61614386 -155.10549778 170.63817589 -160.92644882 170.66738319 C-163.0662328 170.67647519 -165.20603434 170.68215296 -167.34583664 170.68421364 C-170.261017 170.68752471 -173.17588614 170.70297088 -176.09100342 170.7215271 C-177.36921215 170.718625 -177.36921215 170.718625 -178.67324328 170.71566427 C-184.19985496 170.6546487 -184.19985496 170.6546487 -189 173 C-191.50082133 176.42359093 -191.25395701 179.84656982 -191.26069641 183.97715759 C-191.26452196 184.67941847 -191.26834751 185.38167935 -191.27228898 186.10522085 C-191.28260703 188.45816285 -191.27862916 190.81086028 -191.2746582 193.16381836 C-191.27900534 194.85085781 -191.28418849 196.53789528 -191.29014587 198.22492981 C-191.30354681 202.80754936 -191.30411334 207.39008649 -191.30158257 211.97272182 C-191.30051363 215.79737818 -191.30539425 219.62201781 -191.310188 223.44667059 C-191.32128691 232.46893567 -191.32171839 241.49115913 -191.31567383 250.51342773 C-191.30963234 259.82360088 -191.32194862 269.13362297 -191.3432439 278.44377035 C-191.36085168 286.43538024 -191.36686257 294.426942 -191.36360615 302.41857058 C-191.36179188 307.19239283 -191.36444385 311.96610732 -191.37832069 316.73991203 C-191.39088108 321.22888345 -191.38897194 325.71761911 -191.37590981 330.20658684 C-191.37354059 331.85413695 -191.37629107 333.50170357 -191.38453293 335.14923477 C-191.39497317 337.39838402 -191.38692236 339.64673824 -191.3742218 341.89585876 C-191.37447341 343.78373312 -191.37447341 343.78373312 -191.37473011 345.70974636 C-190.93564133 349.5650903 -189.76290541 352.23709459 -187 355 C-185.0007223 355.10898528 -182.99756013 355.14690644 -180.99534607 355.15821838 C-179.68977753 355.1680072 -178.38420898 355.17779602 -177.03907776 355.18788147 C-175.5787052 355.19378645 -174.11833226 355.19959684 -172.65795898 355.20532227 C-171.13073457 355.21489528 -169.60351284 355.22490501 -168.07629395 355.23532104 C-163.91741199 355.2624387 -159.7585186 355.28341098 -155.59959674 355.30332303 C-151.25803194 355.32514042 -146.91650263 355.35254982 -142.57496643 355.37937927 C-134.34788992 355.42936377 -126.12079376 355.47428116 -117.89367872 355.51740164 C-108.52984415 355.56672492 -99.16604519 355.62166119 -89.80224502 355.67708123 C-70.53486305 355.79098962 -51.2674475 355.89780927 -32 356 C-32.47445293 357.59796887 -32.95020937 359.19555074 -33.42651367 360.79296875 C-33.69131027 361.68266357 -33.95610687 362.5723584 -34.22892761 363.48901367 C-35.12100639 366.39405559 -36.12856181 369.20086092 -37.3125 372 C-37.67988281 372.9075 -38.04726563 373.815 -38.42578125 374.75 C-40.57529608 377.82225941 -42.40826047 378.05347973 -46 379 C-49.15966797 379.22705078 -49.15966797 379.22705078 -52.4921875 379.1953125 C-53.69101562 379.18886719 -54.88984375 379.18242188 -56.125 379.17578125 C-57.3625 379.15902344 -58.6 379.14226562 -59.875 379.125 C-61.13570312 379.11597656 -62.39640625 379.10695313 -63.6953125 379.09765625 C-66.79695681 379.07415894 -69.89850303 379.03829009 -73 379 C-73 386.92 -73 394.84 -73 403 C-66.4 403.33 -59.8 403.66 -53 404 C-54.46440986 409.39519423 -56.04679198 414.20512699 -58.5715332 419.19775391 C-59.0252681 420.09732819 -59.47900299 420.99690247 -59.94648743 421.92373657 C-60.29414658 422.6089035 -60.64180573 423.29407043 -61 424 C-70.56198272 424.09272506 -80.12381042 424.16377752 -89.68614483 424.20724869 C-94.12645549 424.2281139 -98.5664583 424.25641177 -103.0065918 424.30175781 C-107.29247369 424.34525406 -111.57805968 424.36914513 -115.86414528 424.37950897 C-117.49842804 424.3868936 -119.13269481 424.40131425 -120.76685143 424.42292023 C-123.05805694 424.45200559 -125.34804355 424.45595403 -127.6394043 424.45410156 C-128.94290329 424.46298401 -130.24640228 424.47186646 -131.58940125 424.48101807 C-135.56256499 423.92065794 -137.18836762 422.80381702 -140 420 C-141.60086627 416.79826746 -141.49917089 413.47422941 -141 410 C-139.20636089 407.1899654 -137.98119065 405.49059532 -135 404 C-132.67726841 403.84479443 -130.35040687 403.74980833 -128.0234375 403.68359375 C-127.33819 403.66281265 -126.6529425 403.64203156 -125.94692993 403.62062073 C-123.75638931 403.55519815 -121.56572811 403.49627446 -119.375 403.4375 C-117.8906125 403.39430782 -116.40623722 403.3506933 -114.921875 403.30664062 C-111.28137182 403.19872862 -107.64077805 403.09960219 -104 403 C-104 394.75 -104 386.5 -104 378 C-108.2993457 378.0314209 -108.2993457 378.0314209 -112.68554688 378.06347656 C-122.16898406 378.12983657 -131.65243165 378.17397141 -141.13603973 378.20724869 C-146.88443817 378.22809899 -152.63259816 378.25637035 -158.38085938 378.30175781 C-163.93109981 378.34530612 -169.48111127 378.36915634 -175.0315094 378.37950897 C-177.1461599 378.38688416 -179.26079826 378.40128621 -181.37535095 378.42292023 C-184.34360569 378.45207321 -187.31092138 378.45595098 -190.27929688 378.45410156 C-191.14820557 378.46848267 -192.01711426 378.48286377 -192.91235352 378.49768066 C-199.49427698 378.45347734 -205.05574162 376.9067519 -209.83984375 372.18359375 C-210.20207031 371.60738281 -210.56429688 371.03117187 -210.9375 370.4375 C-211.31777344 369.85871094 -211.69804687 369.27992188 -212.08984375 368.68359375 C-214.33430389 364.53182413 -214.15097608 360.52793411 -214.15390015 355.94844055 C-214.1582824 355.11847712 -214.16266465 354.28851369 -214.1671797 353.43339986 C-214.18057299 350.64220245 -214.18674777 347.85103661 -214.19287109 345.05981445 C-214.20077166 343.06252398 -214.20904058 341.06523493 -214.21765137 339.06794739 C-214.24387722 332.49973922 -214.25917977 325.93152466 -214.2734375 319.36328125 C-214.27879699 317.10276981 -214.28417449 314.84225841 -214.28956985 312.58174706 C-214.31119957 303.17890761 -214.32993642 293.77606989 -214.34119225 284.37321186 C-214.35743217 270.89508187 -214.39061019 257.41724014 -214.44759309 243.93921882 C-214.48628792 234.46395242 -214.50582442 224.98876314 -214.51111281 215.51341981 C-214.51476692 209.85351988 -214.52679489 204.19392736 -214.55921555 198.53411293 C-214.58928775 193.20789162 -214.59561083 187.88216387 -214.58383179 182.55587578 C-214.58361098 180.60318284 -214.59192171 178.65046705 -214.60948563 176.69785309 C-214.63220014 174.02680261 -214.6238722 171.35753842 -214.60800171 168.68647766 C-214.6218838 167.9180733 -214.63576588 167.14966894 -214.65006864 166.3579796 C-214.5650896 160.53279184 -212.68659885 156.50311339 -209 152 C-203.74138157 147.89827763 -199.99012098 146.8797243 -193.41723633 146.79467773 C-192.75355545 146.78477814 -192.08987457 146.77487854 -191.40608215 146.76467896 C-189.21476801 146.7331191 -187.02343219 146.70832845 -184.83203125 146.68359375 C-183.31173645 146.66301945 -181.79144731 146.64202285 -180.27116394 146.62062073 C-176.27141913 146.56544916 -172.27162311 146.51601825 -168.27178955 146.46777344 C-164.18961026 146.4175225 -160.10750526 146.36185519 -156.02539062 146.30664062 C-148.0169899 146.19911918 -140.00852701 146.09766089 -132 146 C-131.40687012 144.86199951 -130.81374023 143.72399902 -130.20263672 142.55151367 C-129.40349254 141.02774169 -128.60416638 139.50406515 -127.8046875 137.98046875 C-127.41627686 137.23406128 -127.02786621 136.48765381 -126.62768555 135.71862793 C-118.41553633 120.1036796 -107.75940018 105.20464365 -95 93 C-94.67 92.34 -94.34 91.68 -94 91 C-93.34 91 -92.68 91 -92 91 C-91.60941406 90.10667969 -91.60941406 90.10667969 -91.2109375 89.1953125 C-89.91233375 86.84106957 -88.67520844 85.59648303 -86.625 83.875 C-85.90828125 83.27042969 -85.1915625 82.66585937 -84.453125 82.04296875 C-83.64359375 81.36878906 -82.8340625 80.69460938 -82 80 C-81.10796875 79.23300781 -80.2159375 78.46601563 -79.296875 77.67578125 C-58.49501617 59.96082928 -22.7525695 33 6 33 C5.82984375 32.35417969 5.6596875 31.70835937 5.484375 31.04296875 C3.76319627 24.35051316 2.21285441 17.62825591 0.75 10.875 C0.56276367 10.03348389 0.37552734 9.19196777 0.18261719 8.32495117 C-1.11640876 2.23281752 -1.11640876 2.23281752 0 0 Z " fill="#00B0FF" transform="translate(525,346)"/>
<path d="M0 0 C2.78664538 0.24783216 3.80183092 0.77624673 5.67358398 2.88964844 C6.21313721 3.7046582 6.75269043 4.51966797 7.30859375 5.359375 C7.91429199 6.26751953 8.51999023 7.17566406 9.14404297 8.11132812 C12.15682479 12.80051972 15.13376558 17.50779198 18.0625 22.25 C19.38467819 24.37806316 20.70761163 26.50565725 22.03125 28.6328125 C22.69382812 29.69790039 23.35640625 30.76298828 24.0390625 31.86035156 C27.01968218 36.63260867 30.03747168 41.3808065 33.0625 46.125 C33.62831787 47.01292236 34.19413574 47.90084473 34.77709961 48.81567383 C37.1514143 52.53951378 39.52813313 56.26180929 41.90673828 59.98291016 C43.19293469 61.99520085 44.47850565 64.00789146 45.76342773 66.02099609 C46.96850495 67.90897674 48.17495852 69.79607988 49.38305664 71.68212891 C50.45395623 73.3603926 51.51845898 75.04276285 52.57519531 76.72998047 C53.48391847 78.17777141 54.40883448 79.61560981 55.35449219 81.03955078 C56.5234375 82.87890625 56.5234375 82.87890625 58 86 C57.25 88.4375 57.25 88.4375 56 90 C46.26969069 90.11241692 36.70086384 89.89262559 27 89 C27.01957764 89.68352539 27.03915527 90.36705078 27.05932617 91.07128906 C27.19495667 99.72580632 26.38711097 108.17823559 25.3125 116.75 C25.22352448 117.46999176 25.13454895 118.18998352 25.0428772 118.93179321 C19.00628875 167.30659035 1.38341952 211.976203 -28 251 C-28.43280273 251.5770166 -28.86560547 252.1540332 -29.31152344 252.74853516 C-35.23375718 260.59365634 -41.53795574 267.9448856 -48.28125 275.09375 C-50.50774656 277.47379805 -52.64573118 279.88813685 -54.75 282.375 C-57.6030107 285.67812161 -60.72603372 288.48471484 -64.0546875 291.30078125 C-65.85637395 292.87454351 -67.48287332 294.51297655 -69.125 296.25 C-74.03219956 301.23526864 -79.6773653 305.36730514 -85.21533203 309.61669922 C-86.84634265 310.88089979 -88.45382118 312.17531137 -90.05859375 313.47265625 C-111.3238429 330.47932495 -136.08668497 343.3476473 -161.3125 353.375 C-162.51720947 353.85791504 -163.72191895 354.34083008 -164.96313477 354.83837891 C-166.64620728 355.48685791 -166.64620728 355.48685791 -168.36328125 356.1484375 C-169.35626221 356.53177246 -170.34924316 356.91510742 -171.37231445 357.31005859 C-174.09267343 358.02433291 -175.40100116 357.97120686 -178 357 C-177.45082727 350.84512077 -174.85400919 345.6680872 -172.3125 340.125 C-171.67924805 338.69220703 -171.67924805 338.69220703 -171.03320312 337.23046875 C-166.0079834 326.17953307 -161.50974427 320.55190987 -150.4375 315.375 C-133.91390467 307.19828032 -118.75660747 297.01221247 -104.55029297 285.27392578 C-103.0709511 284.05830281 -101.56914251 282.87017511 -100.06640625 281.68359375 C-84.47054451 269.04871486 -68.88029759 254.10162908 -57.22460938 237.71630859 C-55.8780967 235.82915067 -54.49457797 233.97220179 -53.109375 232.11328125 C-21.31805248 188.89511153 -9.2897426 142.61901845 -4 90 C-4.59425781 90.06058594 -5.18851563 90.12117187 -5.80078125 90.18359375 C-8.53345666 90.45983621 -11.26670549 90.72995488 -14 91 C-14.93457031 91.09539062 -15.86914062 91.19078125 -16.83203125 91.2890625 C-22.25318323 91.81980465 -27.55322171 92.1027694 -33 92 C-34.22958003 88.52709045 -34.11497443 87.24356425 -32.515625 83.85546875 C-31.77042417 82.62668738 -31.01433135 81.40447392 -30.25 80.1875 C-15.93680502 56.01150314 -7.6057375 30.35263629 -1.55322266 3.07519531 C-1 1 -1 1 0 0 Z " fill="#00ADFF" transform="translate(982,578)"/>
<path d="M0 0 C0.8720961 -0.0065712 1.7441922 -0.0131424 2.64271545 -0.01991272 C5.52727348 -0.03961259 8.41177945 -0.05130253 11.29638672 -0.0612793 C12.2842001 -0.06535482 13.27201347 -0.06943035 14.28976059 -0.07362938 C19.52080831 -0.09447854 24.7518299 -0.10878384 29.98291016 -0.11816406 C35.36953696 -0.12921075 40.75574867 -0.16359403 46.14222908 -0.20333576 C50.29799128 -0.22956161 54.45365559 -0.23786132 58.60949326 -0.24144554 C60.59409251 -0.24629804 62.57868779 -0.25787364 64.56320572 -0.27648354 C78.00558615 -0.39467936 89.1027567 -0.20250515 99.26123047 9.72387695 C109.37092691 21.59095988 111.42390025 37.51410645 114.54003906 52.33129883 C115.30678135 55.96697748 116.10176316 59.59541975 116.90185547 63.22387695 C123.04462055 91.66268169 123.04462055 91.66268169 117.66748047 100.5246582 C114.01017583 105.11528093 110.22922978 107.32829325 104.41357422 108.23950195 C98.28921186 108.54572007 94.26193792 106.5961657 89.61669922 102.7355957 C86.03259017 99.32411576 82.96347778 95.51615964 79.85107422 91.67700195 C75.89642008 86.80269951 75.89642008 86.80269951 71.72607422 82.11450195 C71.23880859 81.58727539 70.75154297 81.06004883 70.24951172 80.5168457 C64.2832853 76.30611389 56.80062401 76.87017501 49.82763672 76.8762207 C48.72688812 76.87193558 47.62613953 76.86765045 46.49203491 76.86323547 C44.17064093 76.85750945 41.849229 76.85697913 39.52783203 76.86132812 C35.99463987 76.86448536 32.46228788 76.84101562 28.92919922 76.81567383 C26.66617943 76.81340025 24.40315741 76.81269761 22.14013672 76.8137207 C21.09298492 76.80451096 20.04583313 76.79530121 18.96694946 76.78581238 C11.35447043 76.83333419 4.47047752 77.50261048 -1.46923828 82.5949707 C-2.22978516 83.50891602 -2.99033203 84.42286133 -3.77392578 85.36450195 C-4.60794922 86.34290039 -5.44197266 87.32129883 -6.30126953 88.3293457 C-7.46335937 89.73893555 -7.46335937 89.73893555 -8.64892578 91.17700195 C-10.96175201 93.86211409 -13.30185213 96.52183987 -15.64892578 99.17700195 C-16.47457031 100.15540039 -16.47457031 100.15540039 -17.31689453 101.15356445 C-20.97367106 105.22036856 -23.98481011 107.25602078 -29.44970703 108.09106445 C-34.49397063 108.288176 -37.782186 106.7603845 -41.89892578 103.98950195 C-47.79793897 97.95642028 -48.05412349 92.71492163 -47.98339844 84.56201172 C-47.54249895 76.44675696 -45.43396992 68.49774511 -43.59619141 60.60888672 C-42.90019598 57.61995678 -42.22584063 54.62678491 -41.55517578 51.63208008 C-33.39382213 15.55130064 -33.39382213 15.55130064 -20.64892578 5.17700195 C-13.86053591 0.91423808 -7.95219003 0.0260502 0 0 Z M68.35107422 21.17700195 C67.51757471 24.13360068 67.51757471 24.13360068 68.35107422 27.17700195 C70.33073685 30.24007826 70.33073685 30.24007826 73.35107422 32.17700195 C76.99577201 32.25138354 78.77051852 31.56403909 81.78857422 29.55200195 C83.67740902 27.15478829 83.67740902 27.15478829 83.35107422 23.61450195 C82.62946503 20.20197302 82.62946503 20.20197302 80.60107422 18.23950195 C75.42154952 15.79361529 72.17146658 17.02914738 68.35107422 21.17700195 Z M-8.64892578 20.17700195 C-9.23485212 23.2931075 -9.23485212 23.2931075 -9.33642578 26.80200195 C-9.40216797 27.99051758 -9.46791016 29.1790332 -9.53564453 30.40356445 C-9.57302734 31.31879883 -9.61041016 32.2340332 -9.64892578 33.17700195 C-11.02177734 33.21567383 -11.02177734 33.21567383 -12.42236328 33.25512695 C-14.20513672 33.34020508 -14.20513672 33.34020508 -16.02392578 33.42700195 C-17.20728516 33.4734082 -18.39064453 33.51981445 -19.60986328 33.56762695 C-22.70808478 33.84657861 -22.70808478 33.84657861 -24.07861328 35.99731445 C-24.93499179 39.27032272 -24.37483564 41.9104076 -23.64892578 45.17700195 C-21.76046395 47.50566424 -21.76046395 47.50566424 -18.60986328 47.37231445 C-16.83482422 47.33750977 -16.83482422 47.33750977 -15.02392578 47.30200195 C-13.83541016 47.28395508 -12.64689453 47.2659082 -11.42236328 47.24731445 C-10.50712891 47.22411133 -9.59189453 47.2009082 -8.64892578 47.17700195 C-8.68373047 48.16442383 -8.71853516 49.1518457 -8.75439453 50.16918945 C-8.78146484 51.45051758 -8.80853516 52.7318457 -8.83642578 54.05200195 C-8.87123047 55.32817383 -8.90603516 56.6043457 -8.94189453 57.91918945 C-8.84521484 58.99426758 -8.74853516 60.0693457 -8.64892578 61.17700195 C-5.17968698 63.48982782 -3.72687003 63.60178781 0.35107422 63.17700195 C2.15800369 62.13766912 2.15800369 62.13766912 3.35107422 60.17700195 C3.71469042 56.97562127 3.71469042 56.97562127 3.53857422 53.48950195 C3.51150391 52.31000977 3.48443359 51.13051758 3.45654297 49.9152832 C3.40433594 48.55983398 3.40433594 48.55983398 3.35107422 47.17700195 C4.25470703 47.21180664 5.15833984 47.24661133 6.08935547 47.2824707 C7.26884766 47.30954102 8.44833984 47.33661133 9.66357422 47.36450195 C10.83533203 47.39930664 12.00708984 47.43411133 13.21435547 47.4699707 C16.29826352 47.43696656 16.29826352 47.43696656 18.24951172 45.8840332 C20.08341646 43.04213118 19.64344972 40.4516076 19.35107422 37.17700195 C18.69107422 36.18700195 18.03107422 35.19700195 17.35107422 34.17700195 C13.99603946 33.81142078 13.99603946 33.81142078 10.22607422 33.98950195 C8.94474609 34.01657227 7.66341797 34.04364258 6.34326172 34.0715332 C4.86212891 34.12374023 4.86212891 34.12374023 3.35107422 34.17700195 C3.38587891 33.27336914 3.42068359 32.36973633 3.45654297 31.4387207 C3.48361328 30.25922852 3.51068359 29.07973633 3.53857422 27.86450195 C3.57337891 26.69274414 3.60818359 25.52098633 3.64404297 24.3137207 C3.61558812 21.22354444 3.61558812 21.22354444 2.02685547 19.27856445 C-1.76873053 16.78356387 -5.12225225 17.82588626 -8.64892578 20.17700195 Z M53.35107422 38.17700195 C53.01447277 41.82107333 53.01447277 41.82107333 54.35107422 45.17700195 C57.17398759 47.75795132 58.6562945 48.19089755 62.47607422 48.11450195 C65.36560622 47.37021744 65.36560622 47.37021744 67.28857422 45.55200195 C68.84908365 42.06380441 68.34262086 39.81267298 67.35107422 36.17700195 C65.26481379 33.86721362 63.94289741 33.29840158 60.91357422 32.67700195 C57.05096186 33.43068241 55.62926847 35.02773344 53.35107422 38.17700195 Z M83.35107422 38.17700195 C83.01447277 41.82107333 83.01447277 41.82107333 84.35107422 45.17700195 C87.17398759 47.75795132 88.6562945 48.19089755 92.47607422 48.11450195 C95.37616619 47.38381871 95.37616619 47.38381871 97.22607422 45.48950195 C98.70918026 42.4408951 98.83999079 40.52957271 98.35107422 37.17700195 C96.25996759 34.12076918 95.05800573 33.31237182 91.41357422 32.61450195 C87.22928708 33.38304449 85.78179919 34.71506033 83.35107422 38.17700195 Z M70.35107422 50.17700195 C68.02358077 53.66824212 67.84808106 55.06922446 68.35107422 59.17700195 C70.44218085 62.23323472 71.64414271 63.04163209 75.28857422 63.73950195 C79.44065671 62.97687456 80.90902628 61.58106877 83.35107422 58.17700195 C83.35107422 54.87543465 82.97693534 53.04128636 81.03857422 50.36450195 C77.12410633 47.6098764 74.53434157 47.97528229 70.35107422 50.17700195 Z " fill="#00AEFF" transform="translate(402.64892578125,560.822998046875)"/>
<path d="M0 0 C3.37043475 0.70140833 6.58019393 1.77951663 9.8059082 2.95907593 C10.51130737 3.20978348 11.21670654 3.46049103 11.94348145 3.71879578 C14.18168443 4.51653429 16.41560429 5.32558255 18.6496582 6.13485718 C20.11554643 6.65836551 21.58169093 7.18115686 23.0480957 7.70321655 C26.68893799 9.00275785 30.32245019 10.32147984 33.95336914 11.64846802 C36.20066276 12.46590983 38.45229883 13.27055651 40.7043457 14.07479858 C42.15504779 14.60082895 43.60557553 15.12734042 45.0559082 15.65438843 C45.72626099 15.89098679 46.39661377 16.12758514 47.08728027 16.37135315 C53.07677643 18.57202454 53.07677643 18.57202454 55.1496582 21.44735718 C55.6496582 24.38485718 55.6496582 24.38485718 55.1496582 27.44735718 C53.0871582 29.88485718 53.0871582 29.88485718 50.1496582 31.44735718 C43.82039796 31.07802137 38.08521285 28.89681419 32.1418457 26.80673218 C30.57637497 26.26064301 30.57637497 26.26064301 28.97927856 25.70352173 C26.78109844 24.93364783 24.5841679 24.16019784 22.38842773 23.38339233 C19.03400719 22.20065355 15.67232582 21.04045455 12.30981445 19.88095093 C10.17000888 19.12841569 8.0306693 18.37455382 5.8918457 17.61923218 C4.8896701 17.27632141 3.88749451 16.93341064 2.85494995 16.58010864 C-2.49062892 14.66106517 -6.41935131 13.08125568 -9.8503418 8.44735718 C-9.8503418 4.75985718 -9.8503418 4.75985718 -8.8503418 1.44735718 C-5.40887618 -0.84695323 -3.96992867 -0.62037208 0 0 Z " fill="#0090FF" transform="translate(773.850341796875,408.5526428222656)"/>
</svg>
